<?xml version="1.0" encoding="UTF-8"?>
<svg id="Layer_1" xmlns="http://www.w3.org/2000/svg" version="1.1" viewBox="0 0 590.74 103.39">
  <!-- Generator: Adobe Illustrator 30.3.0, SVG Export Plug-In . SVG Version: 2.1.3 Build 182)  -->
  <defs>
    <style>
      .st0 {
        fill: #aa9260;
      }
    </style>
  </defs>
  <g>
    <path class="st0" d="M66.72,103.39l-15.29-29.37-15.43,29.37H0v-.81l33.56-52.1L1.9.81v-.81h35.59l13.94,27.07L65.23,0h35.73v.81l-31.8,49.67,33.56,52.1v.81h-36Z"/>
    <path class="st0" d="M110.17,103.39V0h30.58v78.35h47.77v25.04h-78.35Z"/>
    <path class="st0" d="M196.51,103.39V0h84.85v24.9h-54.27v14.07h41.95v23.55h-41.95v15.97h54.95v24.9h-85.53Z"/>
  </g>
  <g>
    <g>
      <polygon class="st0" points="443.37 69.47 450.49 69.47 450.49 41.03 464.71 41.03 464.71 33.92 429.15 33.92 429.15 41.03 443.37 41.03 443.37 69.47"/>
      <rect class="st0" x="406.27" y="33.92" width="7.11" height="35.55"/>
      <path class="st0" d="M538.92,33.92h-35.55v35.55h35.55v-35.55ZM531.81,62.36h-21.33v-21.33h21.33v21.33Z"/>
      <polygon class="st0" points="561.81 45.03 583.14 69.47 590.25 69.47 590.25 33.92 583.14 33.92 583.14 59.14 561.81 33.92 554.7 33.92 554.7 69.47 561.81 69.47 561.81 45.03"/>
      <rect class="st0" x="480.48" y="33.92" width="7.11" height="35.55"/>
      <polygon class="st0" points="339.16 62.36 310.72 62.36 310.72 55.25 332.05 55.25 332.05 48.14 310.72 48.14 310.72 41.03 339.16 41.03 339.16 33.92 303.61 33.92 303.61 69.47 339.16 69.47 339.16 62.36"/>
      <path class="st0" d="M390.49,62.36v-21.33l-7.11-7.11h-28.44v35.55h28.44l7.11-7.11ZM362.05,62.36v-21.33h17.78l3.55,3.89v13.89l-3.55,3.56h-17.78Z"/>
    </g>
    <rect class="st0" x="304.65" y="86.7" width="286.1" height="5.33"/>
    <rect class="st0" x="304.65" y="11.36" width="286.1" height="5.33"/>
  </g>
</svg>