<?xml version="1.0" encoding="UTF-8"?>
<svg id="Layer_1" xmlns="http://www.w3.org/2000/svg" version="1.1" viewBox="0 0 625.76 137.71">
  <!-- Generator: Adobe Illustrator 30.3.0, SVG Export Plug-In . SVG Version: 2.1.3 Build 182)  -->
  <defs>
    <style>
      .st0 {
        fill: #aa9260;
      }
    </style>
  </defs>
  <g>
    <g>
      <polygon class="st0" points="310.26 137.71 315.5 137.71 315.5 116.77 325.96 116.77 325.96 111.54 299.79 111.54 299.79 116.77 310.26 116.77 310.26 137.71"/>
      <rect class="st0" x="254.99" y="111.54" width="5.23" height="26.17"/>
      <path class="st0" d="M436.51,111.54h-26.17v26.17h26.17v-26.17ZM431.27,132.48h-15.7v-15.7h15.7v15.7Z"/>
      <polygon class="st0" points="470.84 119.72 486.55 137.71 491.78 137.71 491.78 111.54 486.55 111.54 486.55 130.1 470.84 111.54 465.61 111.54 465.61 137.71 470.84 137.71 470.84 119.72"/>
      <rect class="st0" x="365.53" y="111.54" width="5.23" height="26.17"/>
      <polygon class="st0" points="160.15 132.48 139.21 132.48 139.21 127.24 154.91 127.24 154.91 122.01 139.21 122.01 139.21 116.77 160.15 116.77 160.15 111.54 133.98 111.54 133.98 137.71 160.15 137.71 160.15 132.48"/>
      <path class="st0" d="M215.42,132.48v-15.7l-5.23-5.23h-20.94v26.17h20.94l5.23-5.23ZM194.49,132.48v-15.7h13.09l2.62,2.86v10.22l-2.62,2.62h-13.09Z"/>
    </g>
    <rect class="st0" x="36.74" y="122.66" width="71.71" height="3.93"/>
    <rect class="st0" x="517.32" y="122.66" width="71.71" height="3.93"/>
  </g>
  <g>
    <g>
      <path class="st0" d="M57.28,54.29H22.51v21.82H0V0h57.48c5.78,0,8.97,3.49,8.97,9.46v35.36c0,6.08-3.29,9.46-9.17,9.46ZM43.83,17.53h-21.32v19.63h21.32v-19.63Z"/>
      <path class="st0" d="M75.41,76.11V0h22.51v57.68h35.16v18.43h-57.68Z"/>
      <path class="st0" d="M191.67,76.11l-2.89-10.76h-24.6l-3.09,10.76h-22.91v-.2L164.47,0h24.01l26.3,75.91v.2h-23.11ZM176.42,24.31l-6.67,24.01h13.35l-6.67-24.01Z"/>
      <path class="st0" d="M251.94,18.33v57.78h-22.51V18.33h-22.71V0h67.93v18.33h-22.71Z"/>
      <path class="st0" d="M280.53,76.11V0h22.51v76.11h-22.51Z"/>
      <path class="st0" d="M360.22,76.11l-25-37.95v37.95h-22.51V0h22.21l24.9,37.85V0h22.61v76.11h-22.21Z"/>
      <path class="st0" d="M452.07,76.11h-50.8c-5.88,0-9.07-3.49-9.07-9.46V0h22.51v58.08h23.91V0h22.61v66.64c0,5.98-3.29,9.46-9.16,9.46Z"/>
      <path class="st0" d="M530.47,76.11v-33.97l-9.66,30.68h-18.13l-9.66-30.68v33.97h-22.11V0h23.91l16.74,40.84h.4L528.58,0h23.71v76.11h-21.82Z"/>
    </g>
    <path class="st0" d="M607.33,52.8v17.23h-19.52v-17.23h-18.23v-18.03h18.23v-17.43h19.52v17.43h18.43v18.03h-18.43Z"/>
  </g>
</svg>