<?xml version="1.0" encoding="UTF-8"?>
<svg id="Layer_1" xmlns="http://www.w3.org/2000/svg" version="1.1" viewBox="0 0 552.29 137.71">
  <!-- Generator: Adobe Illustrator 30.3.0, SVG Export Plug-In . SVG Version: 2.1.3 Build 182)  -->
  <defs>
    <style>
      .st0 {
        fill: #aa9260;
      }
    </style>
  </defs>
  <g>
    <polygon class="st0" points="273.53 137.71 278.76 137.71 278.76 116.77 289.23 116.77 289.23 111.54 263.06 111.54 263.06 116.77 273.53 116.77 273.53 137.71"/>
    <rect class="st0" x="218.25" y="111.54" width="5.23" height="26.17"/>
    <path class="st0" d="M399.77,111.54h-26.17v26.17h26.17v-26.17ZM394.54,132.48h-15.7v-15.7h15.7v15.7Z"/>
    <polygon class="st0" points="434.11 119.72 449.81 137.71 455.05 137.71 455.05 111.54 449.81 111.54 449.81 130.1 434.11 111.54 428.88 111.54 428.88 137.71 434.11 137.71 434.11 119.72"/>
    <rect class="st0" x="328.8" y="111.54" width="5.23" height="26.17"/>
    <polygon class="st0" points="123.41 132.48 102.48 132.48 102.48 127.24 118.18 127.24 118.18 122.01 102.48 122.01 102.48 116.77 123.41 116.77 123.41 111.54 97.24 111.54 97.24 137.71 123.41 137.71 123.41 132.48"/>
    <path class="st0" d="M178.69,132.48v-15.7l-5.23-5.23h-20.94v26.17h20.94l5.23-5.23ZM157.75,132.48v-15.7h13.09l2.62,2.86v10.22l-2.62,2.62h-13.09Z"/>
  </g>
  <g>
    <path class="st0" d="M57.28,54.29H22.51v21.82H0V0h57.48c5.78,0,8.97,3.49,8.97,9.46v35.36c0,6.08-3.29,9.46-9.17,9.46ZM43.83,17.53h-21.32v19.63h21.32v-19.63Z"/>
    <path class="st0" d="M75.41,76.11V0h22.51v57.68h35.16v18.43h-57.68Z"/>
    <path class="st0" d="M191.67,76.11l-2.89-10.76h-24.6l-3.09,10.76h-22.91v-.2L164.47,0h24.01l26.3,75.91v.2h-23.11ZM176.42,24.31l-6.67,24.01h13.35l-6.67-24.01Z"/>
    <path class="st0" d="M251.94,18.33v57.78h-22.51V18.33h-22.71V0h67.93v18.33h-22.71Z"/>
    <path class="st0" d="M280.53,76.11V0h22.51v76.11h-22.51Z"/>
    <path class="st0" d="M360.22,76.11l-25-37.95v37.95h-22.51V0h22.21l24.9,37.85V0h22.61v76.11h-22.21Z"/>
    <path class="st0" d="M452.07,76.11h-50.8c-5.88,0-9.07-3.49-9.07-9.46V0h22.51v58.08h23.91V0h22.61v66.64c0,5.98-3.29,9.46-9.16,9.46Z"/>
    <path class="st0" d="M530.47,76.11v-33.97l-9.66,30.68h-18.13l-9.66-30.68v33.97h-22.11V0h23.91l16.74,40.84h.4L528.58,0h23.71v76.11h-21.82Z"/>
  </g>
  <rect class="st0" y="122.66" width="71.71" height="3.93"/>
  <rect class="st0" x="480.58" y="122.66" width="71.71" height="3.93"/>
</svg>