<?xml version="1.0" encoding="UTF-8"?>
<svg id="Layer_1" xmlns="http://www.w3.org/2000/svg" version="1.1" viewBox="0 0 460.49 156.12">
  <!-- Generator: Adobe Illustrator 30.3.0, SVG Export Plug-In . SVG Version: 2.1.3 Build 182)  -->
  <defs>
    <style>
      .st0 {
        fill: #aa9260;
      }
    </style>
  </defs>
  <path class="st0" d="M213.09,81.4c.29.02.52-.26.43-.54-.93-3-1.34-4.12.24-7.28,4.61-9.24,20.35-20.64,29.82-24.41,2-.8,9.14-3.32,10.48-1.08.77,1.28-2.83,6.96-3.65,8.34-7.05,11.79-16.37,23.25-24.25,34.66-.26.38-.64,1.23-.97,1.11l-.18-15.63c0-.19.03-.31-.62-.53l-1.27-.13c-.25-.03-.46.18-.45.43.11,3.3.23,6.38.36,9.7.09,2.39.29,6.53.26,8.8-.02,1.67-1.63,2.84-1.49,4.27.17,1.83,1.99.98,2.31,1.55.7,1.26,2.04,10.65,2.68,12.93.31,1.1.95,1.09,1.49,1.08l.77-.1-2.68-14.36c-.03-.17.29-.43.44-.51,6.86-4.04,12.3-10.14,18.76-14.79,6.13-4.41,13.58-8.63,21.13-9.78.33-.05.58.31.43.6-3.4,6.64-8.57,12.1-13.34,17.77-.23.27-.66.14-.71-.21-.74-4.58-4.5-2.33-7.33-.09-5.82,4.6-8.51,11.19-11.75,17.59-.28.56-.23,1.23.15,1.74l.06.09c.46.63,1.33.79,1.99.37,4.25-2.67,7.8-6.92,11.74-10.19.24-.2.6-.06.66.24.43,2.08,1.59,3.13,4.05,2.64,2.83-.56,11.2-8.96,13.78-11.43,3.91-3.75,7.68-7.52,11.34-11.52.13-.14.35-.17.51-.07,1.26.83,4.91,2.96,5.99,3.55,3.73,2.02,6.1,2.96,6.4,3.15.36.23-.55,1-1.18,1.45-6.03,4.24-14.85,10.39-18.3,16.91-1.15,2.18-2.3,4.31-.67,6.49,1.35,1.81,3.54,1.68,5.26,1.55,6.81-.54,23.28-7.78,27.41-11.91,3.4-3.41,2.65-6.35-.24-9.48-.49-.53-1.67-1.41-2.26-1.83-1.17-.83-4.82-3.1-4.82-3.1-.21-.17.02-.26.24-.43,5.5-4.28,11.36-8.07,17.05-12.1,1.99-1.41,8.72-5.57,10.1-6.7.1-.08.07,0,.62-.54l.2-.2c.42-.47,1.73-2.14,2.12-3.32.13-.38-.31-.69-.64-.45-1.19.86-2.49,1.58-3.71,2.39-6.68,4.46-12.67,9.33-19.47,13.38,0,0-.02.01-.02.02l-9.02,6.45c-.13.09-.29.1-.43.03l-12.95-6.7c-.17-.09-.27-.28-.21-.46.42-1.48,4.91-6.03,5.67-6.98,6.33-7.91,15.25-19.02,19.89-27.84,2.61-4.95,2.95-8.14-3.97-6.11-3.04.89-14.21,7.86-16.35,9.73l-1.8,1.49c-1.96,1.29-7.45,7.01-9.02,9.01-5.85,7.45-4.14,14.26,1.97,20.67l.03-.02c-1.63,1.79-3.82,4.19-5.87,6.23-4.21,4.18-11.88,12.06-16.49,15.11-.67.44-1.24,1.06-2.07,1.12-.24.02-.45-.17-.45-.41.03-1.33.29-2.92.91-4.03,1.36-2.44,7.85-8.24,10.18-11.17,1.51-1.91,8.42-10.93,8.1-13.06-.01-.07-.05-.14-.09-.19-2.44-3.19-6.32-1.3-9.51-.2-7.82,2.68-16.6,8.94-23.03,14.12-1.16.93-9.27,8.86-11.35,9.42-.21.06-.42-.09-.48-.3-.47-1.64-.01-2.11.75-3.55,4.05-7.56,11.86-16.31,16.92-23.64,3.17-4.59,7.24-10.09,9.91-14.86,2.25-4.03,5.54-9.8-2.1-9.82-11.02-.02-35.47,17.9-40,27.93-1.09,2.41-1.76,7.7,1.61,7.97ZM242.96,104.34c-.34.32-2.93,2.77-4.4,3.69-.34.21-.76-.16-.58-.53,1.36-2.89,2.88-5.73,4.96-8.16.43-.51,4.84-4.75,6.49-5.49.26-.12.57.09.57.38-.04,4.6-3.99,7.29-7.03,10.11ZM293.22,91.04c.12-.09.27-.11.41-.05,3.68,1.63,11.62,5.55,8.49,10.05-2.85,4.09-22.61,12.52-27.6,12.57-2.89.03-2.13-1.67-1.38-3.55,3.21-8.05,13.44-13.8,20.09-19.02ZM273.14,66.34c1.08-5.34,11.93-14.61,16.42-17.74,4.4-3.07,9.63-6.35,14.98-7.25.3-.05.55.25.46.54-.14.48-.47.9-.71,1.35-3.06,5.71-7.04,11.14-10.75,16.28-4.88,6.75-9.96,13.35-15.71,19.43-.16.17-.44.18-.6,0-3.27-3.38-5.05-7.84-4.08-12.61Z"/>
  <path class="st0" d="M204.05,113.25c1.48-6.56,4.37-11.6,9.22-16.83.9-.97.96-2.71-.84-1.7-1.98,1.12-4.3,4.51-5.49,6.47-1.31,2.16-1.86,3.33-3.58,7.58-.19-4.64-1.65-10.12-1.91-14.75-.34-6.02.92-12.39.25-18.2-.14-1.21-.75-1.58-1.66-1.65-.64-.05-1.25.38-1.38,1.01-.42,1.94-.06,4.01-.18,6-.21,3.58.24,7.62-.04,10.63-.13,1.37-2.64,9.22-3.34,10.22-.22.32-.51.44-.86.56-1.31.22-3.17-1.84-3.36-3.15.42-4.69.72-10.15-.13-14.78-.24-1.29-.68-3.77-2.66-3.21-1.82.51-1.72,9.85-1.56,11.7.21,2.36,1.5,4.86,1.18,7.15-.12.88-1.36,3.96-2.05,4.38-.93.57-2.87.05-3-1.2-.14-1.36.33-4.99.44-6.91.14-2.54-.7-15.18-1.94-16.85-.33-.45-.92-.72-1.54-.84-.64-.11-1.27.27-1.45.9-1.83,6.32-2.34,14.75-.51,20.94.38,1.3,1.3,2.73,1.58,3.92.44,1.9-1.75,6.32-4.21,5.96-6.86-1.03-7.22-17.44-6.6-23.34.04-.41-.2-.79-.58-.93-.73-.27-1.58-.43-2.05.2-.79,3.22-1.75,6.73-2.99,9.82-.94,2.36-4.28,11.32-6.51,11.82-2.01.45-3.01-3.59-3.11-5.17-1.11-17.87,4.62-40.14,13.61-55.6.44-.76,2.83-3.27,2.63-3.72-.19-.45-.85-.78-1.42-.62-1.53.41-4.52,6.65-5.35,8.32-4.14,8.31-7.68,17.5-9.46,26.63-.51,1.82-.41-.56-.41-1.68-.04-14.55.17-14.76.38-24.3.01-.66.09-4.19.04-5.76-.01-.37-.31-.66-.67-.66l-1.39-.02c-.38,0-.7.31-.69.69.15,5.28.17,9.87.17,15.38,0,16.99-.35,36.38.88,53.3.28,3.88,1.06,18.6,2.79,21.13.43.64.68.88,1.28,1.14.29.12.98-.08,1.14-.34v-.02c.2-.31.21-.7.05-1.03-.36-.76-.74-1.51-.95-2.33-1.81-7.38-1.37-15.09-2.19-22.6,7.7.89,9.2-9.07,11.54-14.52l1.91,8.97c2.25,8.96,12.92,12.06,14.31.85,4.07,2.12,7.33,1.56,8.11-3.42.45-.38,2.72,1.82,3.71,2.04,4.39,1.01,5.38-2.44,6.16-5.81.17.84.24,1.16.37,1.84.52,2.57,1.83,9.69,1.73,11.96-.06,1.38-1.55,4.11-1.96,5.76-1.46,5.98-1.88,9.81-.52,15.9,1.32,5.91,3.38,11.79,5.29,16.92.74,1.98,1.7,4.54,2.89,4.73,1,.16,1.86-.73,1.74-1.74l-4.89-41.12ZM180.76,100.74c-1.07-.6-1.82-5.55-1.91-6.69-.29-3.79.46-5.89.83-9.66.59.25,1.05,3.02,1.14,3.67.6,4.41.44,8.26-.07,12.68ZM200.62,124.75c.17-1.99.94-4.2,1.28-6.2l4.11,30.08c-2.16-7.7-6.09-15.78-5.39-23.89Z"/>
  <rect class="st0" x="317.05" y="124.57" width="13.27" height="13.27"/>
  <polygon class="st0" points="130.17 124.57 130.17 137.85 141.23 137.85 143.44 135.63 143.44 126.99 141.23 124.57 130.17 124.57"/>
  <path class="st0" d="M275.99,118.39c-.43.03-.97.08-1.57.08-1.86,0-4.33-.4-6.04-2.69-.6-.81-.95-1.61-1.14-2.4h-27.04c-.83.66-1.68,1.29-2.58,1.85-1.82,1.14-4.26.69-5.55-1.04-.15-.2.09.72.16.95.2.59.42,1.05-.04,1.69-.57.79-2.5.75-4.01.69-2.75-.12-3.65-2.08-3.97-3.22-.07-.25-.14-.56-.22-.91h-17.23s0,0,0,.01l4.47,37.55h181.24v-37.56h-100.5c-5.9,2.61-12.22,4.72-15.97,5.01ZM241.31,124.57h-8.85v17.7h-4.42v-17.7h-8.85v-4.42h22.12v4.42ZM279.18,142.27h-4.42v-22.12h4.42v22.12ZM359.35,120.15h4.42l13.27,15.69v-15.69h4.42v22.12h-4.42l-13.27-15.21v15.21h-4.42v-22.12ZM312.63,120.15h22.12v22.12h-22.12v-22.12Z"/>
  <path class="st0" d="M196.94,117.92c.22-.9.63-1.91,1.03-2.88.19-.47.46-1.12.64-1.65h-17.36c-1.95,2.17-4.32,2.59-5.31,2.65-2.53.17-5.01-.84-7.06-2.65h-12.25s-.06.02-.09.03c.14,1.83.22,3.65.31,5.43.23,4.89.46,9.5,1.56,13.99.11.46.37,1,.64,1.56.67,1.41.61,2.74-.05,3.82-.88,1.42-2.96,2.08-4.48,1.43-1.2-.51-1.81-1.16-2.44-2.09-1.42-2.08-2.27-7.72-3.13-20.81l-.11-1.63c-.04-.56-.06-1.16-.09-1.73h-80.73v37.56h133.29c-1.77-4.81-3.65-10.3-4.9-15.92-1.47-6.6-.98-10.94.53-17.11ZM101.14,124.57h-17.7v4.42h13.27v4.42h-13.27v4.42h17.7v4.42h-22.12v-22.12h22.12v4.42ZM147.86,137.85l-4.42,4.42h-17.7v-22.12h17.7l4.42,4.42v13.27ZM185.73,142.27h-4.42v-22.12h4.42v22.12Z"/>
  <path class="st0" d="M55.08,0H12.67C3.98-.02,0,4.25,0,13.11v86.3C0,108.27,3.92,111.58,12.5,109.6c13.97-3.16,27.99-6.02,42.06-8.56,8.79-1.6,12.93-6.01,12.97-13.76.05-7.89.09-15.77.14-23.66-8.37.9-16.74,1.87-25.1,2.91-.03,5.77-.05,11.54-.07,17.31-5.91.93-11.81,1.9-17.7,2.92.06-22.2.12-44.41.18-66.61,5.93-.24,11.86-.46,17.79-.68-.02,5.63-.05,11.27-.07,16.9,8.38-.57,16.75-1.1,25.14-1.59.05-7.76.09-15.52.14-23.27C68.02,3.77,63.92.02,55.08,0Z"/>
  <path class="st0" d="M98.88,80.03c6.48-.74,12.97-1.43,19.46-2.06.86,4.47,1.71,8.93,2.57,13.37,8.36-.93,16.74-1.76,25.12-2.48,0-.08,0-.15,0-.23C138.26,59.77,130.53,30.32,122.82,0h-27.39c-8.11,31.45-16.22,64-24.3,97.92,0,.09,0,.17,0,.26,8.32-1.36,16.65-2.61,25-3.76.92-4.82,1.83-9.61,2.74-14.4ZM108.93,29.76c1.99,10.45,3.99,20.81,5.98,31.09-4.13.32-8.26.66-12.38,1.02,2.13-10.8,4.27-21.5,6.4-32.11Z"/>
  <path class="st0" d="M151.2,42.88l1.38.02c1.78.03,3.23,1.44,3.3,3.22.06,1.58-.02,5.06-.04,5.87-.06,2.89-.12,4.91-.18,6.72-.02.66-.04,1.29-.06,1.92,1.35-3.43,2.91-6.92,4.67-10.47l.19-.37c3.23-6.54,4.9-8.81,6.86-9.34,1.82-.5,3.84.45,4.57,2.15.76,1.78-.39,3.18-2,5.13-.34.41-.65.78-.8,1.01-6.51,11.21-11.07,25.74-12.69,39.34,2.12-.16,4.23-.29,6.35-.43.16-.63.32-1.24.45-1.77l.13-.52.32-.43c.52-.71,2.07-2.25,5.12-1.12,1.4.51,2.27,1.82,2.29,3.28,1.02-.06,2.04-.15,3.06-.21.28-2.67.76-5.34,1.49-7.85,0-.03.03-.05.04-.08.03-6.7.06-13.41.08-20.11,9.46-.36,18.93-.62,28.4-.79,8.88-.15,13.03-3.3,13.03-10.12.01-12.66.03-25.32.04-37.98C217.21,3.24,213.09,0,204.4,0h-53.46c-.08,14.3-.16,28.59-.24,42.89.17-.02.33-.03.49,0ZM175.91,16.36c5.36-.06,10.71-.1,16.07-.14-.03,8.71-.05,17.41-.08,26.12-5.37.1-10.73.23-16.1.38.04-8.78.07-17.57.11-26.35Z"/>
  <path class="st0" d="M241.11,45.61c3.88-1.72,7.48-2.78,10.36-2.78h.02c3.32,0,5.59,1,6.72,2.94,1.93,3.3-.38,7.44-2.24,10.76-2.18,3.91-5.2,8.19-7.85,11.97-.78,1.1-1.53,2.18-2.24,3.2-1.42,2.05-3.05,4.2-4.74,6.4,0,1.41,0,2.82,0,4.23,7.1-5.25,13.44-8.87,18.86-10.73l1-.36c1.45-.52,3.34-1.18,5.31-1.29-.05-17.66-.1-35.31-.15-52.97,6.58.05,13.17.11,19.76.18-.02-5.72-.05-11.44-.07-17.17h-64.5c0,5.62,0,11.24-.01,16.86,6.59-.01,13.17-.01,19.76,0,0,9.58.02,19.16.03,28.74Z"/>
  <path class="st0" d="M262.09,78.98c-3.94,1.31-8.2,3.53-12.68,6.54,2.5.05,4.99.11,7.49.18,1.85-2.2,3.64-4.41,5.2-6.72Z"/>
  <path class="st0" d="M248.4,54.61c1.42-2.34,2.2-3.81,2.62-4.73-1.48.15-3.93.77-6.44,1.77-1.09.43-2.26.97-3.46,1.59,0,4.18,0,8.36.01,12.54,2.48-3.56,4.86-7.14,7.01-10.72l.27-.45Z"/>
  <path class="st0" d="M308.72,38.21c1.97,2.41.57,5.91-1.06,9.01-4.67,8.87-13.42,19.82-19.81,27.81l-.36.45c-.21.27-.69.79-1.3,1.45-.6.66-1.83,1.99-2.76,3.11l9.46,4.9,8.34-5.92c1.67-1,3.27-2.07,4.86-3.15l1.14-.75c1.81-1.25,3.6-2.54,5.45-3.87,2.51-1.81,5.04-3.63,7.68-5.39.53-.36,1.07-.69,1.62-1.03.68-.42,1.36-.84,2.01-1.31,1.09-.79,2.55-.78,3.64.01,1.08.79,1.52,2.18,1.1,3.45-.66,1.98-2.64,4.22-2.66,4.24l-.31.32c-.72.69-.88.76-.97.83-.66.55-2.61,1.83-5.45,3.66,2.14.17,4.28.3,6.42.48.91,4.54,1.83,9.1,2.74,13.68,8.37.84,16.74,1.78,25.09,2.84,0-.08,0-.16,0-.24C345.49,60.85,337.37,30.02,329.28,0h-27.39c-3.81,14.36-7.63,28.57-11.46,42.69,3.9-2.41,8.21-4.82,10.15-5.39,1.63-.48,5.97-1.75,8.14.91ZM315.75,28.54c2.12,10.16,4.25,20.37,6.38,30.66-4.13-.26-8.27-.5-12.41-.72,2.01-9.93,4.02-19.91,6.03-29.95Z"/>
  <path class="st0" d="M291.89,57.24c2.73-3.78,5.53-7.65,7.97-11.64-3.07,1.36-6.07,3.31-8.76,5.19-1.11.77-2.35,1.73-3.63,2.78-1.35,4.96-2.71,9.92-4.06,14.86,3.01-3.74,5.73-7.38,7.98-10.48l.51-.71Z"/>
  <path class="st0" d="M383.04,97.17c-.2-32.39-.4-64.78-.6-97.17h-25.04c.21,31.19.41,62.38.62,93.58,8.35,1.09,16.69,2.29,25.02,3.6Z"/>
  <path class="st0" d="M435.46,0c.05,16.79.09,33.58.14,50.38C428.76,32.91,421.88,16.15,414.99,0h-24.6c.19,32.82.39,65.63.58,98.45,8.32,1.37,16.62,2.86,24.92,4.44-.07-16.61-.15-33.22-.22-49.83,6.83,17.27,13.62,35.21,20.38,53.91,8.17,1.74,16.32,3.59,24.45,5.54V0h-25.04Z"/>
  <polygon class="st0" points="427.56 128.27 424.28 121.06 421.01 128.27 413.14 129.15 418.99 134.5 417.4 142.26 424.28 138.34 431.17 142.26 429.58 134.5 435.43 129.15 427.56 128.27"/>
  <polygon class="st0" points="39.42 128.27 36.14 121.06 32.87 128.27 25 129.15 30.85 134.5 29.26 142.26 36.14 138.34 43.03 142.26 41.44 134.5 47.29 129.15 39.42 128.27"/>
</svg>